<?xml version="1.0" encoding="iso-8859-1"?>
<svg xmlns="http://www.w3.org/2000/svg" xml:space="preserve" width="300" height="98" overflow="visible">
  <path d="M0 84.6h39.6L53 40.3h-8V14.8L69.4 0l24.5 15.5v24.8h-8l13.4 44.3h25.5V42.3h49.7L195 12.8l21.1 29.5h44.3v42.3H300v8h-2V98H2v-5.4H0z"/>
  <path fill="#fff" d="M47.1 34.2v-6.1c0-4.4.7-8 1.6-8s1.6 3.6 1.6 8v6.1h-3.2zm9 0v-6.1c0-4.4.7-8 1.6-8 .9 0 1.6 3.6 1.6 8v6.1h-3.2zm11.4 0v-6.1c0-4.4.7-8 1.6-8s1.6 3.6 1.6 8v6.1h-3.2zm10.7 0v-6.1c0-4.4.7-8 1.6-8s1.6 3.6 1.6 8v6.1h-3.2zm9.1 0v-6.1c0-4.4.7-8 1.6-8 .9 0 1.6 3.6 1.6 8v6.1h-3.2zm45 50.4v-9c0-6.5 1.9-11.8 4.3-11.8s4.3 5.3 4.3 11.8v9h-8.6zm13.4 0v-9c0-6.5 1.9-11.8 4.3-11.8s4.3 5.3 4.3 11.8v9h-8.6zm13.4 0v-9c0-6.5 1.9-11.8 4.3-11.8s4.3 5.3 4.3 11.8v9h-8.6zm58.3 0v-9c0-6.5 1.9-11.8 4.3-11.8s4.3 5.3 4.3 11.8v9h-8.6zm13.5 0v-9c0-6.5 1.9-11.8 4.3-11.8s4.3 5.3 4.3 11.8v9h-8.6zm13.4 0v-9c0-6.5 1.9-11.8 4.3-11.8s4.3 5.3 4.3 11.8v9h-8.6z"/>
  <circle cx="195.3" cy="40" r="6.3" fill="#fff"/>
  <path fill="none" stroke="#000" stroke-linecap="square" stroke-width=".8949" d="M195.3 40v-3.3m0 3.3h4.5"/>
</svg>