<?xml version="1.0" encoding="UTF-8" standalone="no"?>
<!-- Created with Inkscape (http://www.inkscape.org/) -->
<svg xmlns:svg="http://www.w3.org/2000/svg" xmlns="http://www.w3.org/2000/svg" version="1.0" width="60mm" height="60mm" id="svg2">
  <defs id="defs4"/>
  <path d="m 104.375,0 c -0.0376,0.00676291 -0.0875,0.02909863 -0.125,0.03125 C 97.813186,0.15369273 91.514961,0.84257099 85.40625,2.0625 l 0,0.21875 c 1.60948,-0.086878 3.21251,-0.125 4.84375,-0.125 49.91415,4.12e-5 90.46875,40.379148 90.46875,90.15625 C 180.71876,142.08959 140.16414,182.5 90.25,182.5 42.924561,182.5 4.0609374,146.16283 0.15625,99.96875 0.03270071,102.06605 0,104.1844 0,106.3125 0,164.98624 47.633199,212.59386 106.3125,212.59375 164.99182,212.59365 212.59374,164.98624 212.59375,106.3125 212.59375,47.638719 164.99183,0.03125 106.3125,0.03125 105.71081,0.0312603 105.09994,-0.00622765 104.5,0 c -0.0375,0.00186315 -0.0874,-0.00676292 -0.125,0 z M 85.9375,33.875 64.75,58.625 33.21875,49.5 50.25,77.25 31.8125,104.375 63.5,96.78125 83.65625,122.6875 86.21875,90.25 117.09375,79.125 86.96875,66.65625 85.9375,33.875 z" id="path4287" style="fill: #fff;fill-opacity:1;fill-rule:nonzero;stroke:none"/>
</svg>
