<?xml version="1.0" encoding="UTF-8" standalone="no"?>
<svg xmlns="http://www.w3.org/2000/svg" xmlns:xlink="http://www.w3.org/1999/xlink" width="43.820065" height="30.887508" version="1.0">
  <defs>
    <linearGradient id="a">
      <stop offset="0" stop-color="#bbb"/>
      <stop offset="1" stop-color="#f4f4f4"/>
    </linearGradient>
    <linearGradient xlink:href="#a" id="b" x1="47.76152" x2="10.598763" y1="18.860083" y2="26.461481" gradientTransform="translate(-6.982678 2.828423)" gradientUnits="userSpaceOnUse"/>
  </defs>
  <g fill-rule="evenodd">
    <path fill="url(#b)" stroke="#555753" d="M12.60406 33.140217c1.448219 5.358355 1.018045 6.99805 7.406335 6.366123 6.038263-.597301 8.646644-3.597889 5.572737-5.295537-3.14141-1.734929-.281406-3.426817 1.652661-4.145393 1.934067-.718576 4.445625-1.500777 5.967511-.471754 1.521886 1.029023-1.589147 2.763753.09193 4.747016 1.702773 2.00886 8.784655-1.91781 11.212733-3.17572 2.358125-1.221669.240965-4.811414-1.273961-7.331797-1.553772-2.585011-3.533748-2.776121-5.044916-.671375-1.4696 2.04685-2.957045 1.034169-4.038466-1.6336-1.050722-2.592037.415412-3.420225 2.305954-2.351862 1.890542 1.068362 5.338094-.186655 1.823861-5.466053-3.554898-5.3404868-3.462023-.514148-9.348182.0075-5.973864.529378.140725-5.3540758-8.767694-3.656052-8.823115 1.681764 2.943719 5.338317-3.169004 6.109272-6.199718.781928-10.2606416.525109-8.149791 2.739557 2.069242 2.1708 3.087078 5.232478 1.0590408 6.262719-2.0280364 1.030241-8.3340895-2.815756-6.9726015 4.692551 1.3585852 7.492302 8.2294787-2.06228 9.6718527 3.274448z" transform="translate(-2.24166188 -9.2499341)"/>
    <path fill="#fff" d="M20.60392812.9161189c-.683419.0026-1.5583.140816-2.65625.3125-8.120423 1.266317 2.789073 5.017164-2.452934 5.924556-6.037322 1.040674-10.7104314.538398-8.6408162 2.700444 2.0288172 2.119432 3.7245802 4.997397.9218752 6.53125-2.0160183 1.103318-8.022391-2.736883-6.7031252 4.15625.4212012 2.195778 1.4293546 2.68113 2.359375 2.5625-.6294047-.372311-1.1192209-.790817-1.390625-2.28125-1.3348908-7.330633 3.3196403-2.359336 6.2768082-3.771447 2.010854-.960226 2.360004-4.398874.331187-6.518305-2.0696152-2.162046 1.8993-1.791493 7.977904-2.554918 5.993308-.752712-5.711683-4.87921 2.320351-6.49908 1.540404-.30981 2.604746-.343991 3.375-.25-.39458-.196789-.921428-.315535-1.71875-.3125zm12.165403 1.459597c-4.426223 3.102647-6.659448 2.576306-7.330806 2.636374 2.347136 1.425189 6.028649-.986607 8.839039-2.001571-.372159-.4366-1.190982-.671089-1.508233-.634803zm5.49908 10.559359c-.750696.03293-1.476779.507214-2.125 1.40625-.450278.624505-1.079514 1.058809-1.520527 1.141735.739833.49794 1.720298.218127 2.520527-.891735.685262-.95041 1.167648-1.393014 1.962738-1.375-.372227-.201683-.463615-.297664-.837738-.28125zm-7.191827 6.895106c2.317157 1.459441-1.192349 3.30526.371094 4.960938.319437.338282.662211.365011 1.382813.359375-.143146-.07936-.330623-.07493-.4375-.195313-1.476362-1.662894 1.484342-3.565639-.0078-4.570312-.397321-.267518-.802684-.503372-1.308594-.554688zm-21.425781 2.148438c.365726.248311.915717 1.067741 1.109375 1.78125 1.080786 3.982032 1.175794 5.875301 3.8125 6.078125-1.71993-.716854-1.887359-2.419552-2.8125-5.828125-.344798-1.270368-1.287267-2.03746-2.109375-2.03125z"/>
  </g>
  <path d="M13.929328 20.7375c.4945.069.437.322001.092.989l-.6095 1.15-.0575-.0575-.5635-1.1615c-.3105-.655499-.3565-.851.1265-.92.069-.069.069-.3105 0-.3795-.414.0115-.598.023-1.0465.023-.46 0-.6555-.0115-1.0235-.023-.069.069-.0575.3105.0115.3795.4945.069.5865.230001.966 1.0465l.966 2.0585-1.2765 2.6105h-.0575l-2.1045-4.7955c-.2874997-.655499-.2529993-.8395.4715-.92.069-.069.069-.3105 0-.3795-.5404994.0115-.8280004.023-1.2765.023-.4599995 0-.6555005-.0115-1.196-.023-.069.069-.0575.3105.0115.3795.6554994.0575.6785004.230001 1.0235 1.0465l2.507 5.888c.069.1725.1495.2645.2645.2645.1265 0 .207-.092.276-.2645l1.6905-3.335 1.5525 3.335c.0575.1725.1495.2645.2645.2645.1265 0 .1955-.092.276-.2645l2.714-5.865c.2415-.528999.379501-.9775 1.1385-1.0695.069-.069.069-.3105 0-.3795-.46.0115-.7475.023-1.012.023-.2645 0-.598001-.0115-1.1385-.023-.069.069-.069.3105 0 .3795.747499.0575.759.368001.4945.989l-2.185 4.7265h-.0575l-1.472-3.036.8395-1.61c.2875-.528999.540501-.9775 1.1385-1.0695.069-.069.069-.3105 0-.3795-.2875.0115-.575.023-.8395.023-.2645 0-.483-.0115-.9085-.023-.069.069-.069.3105 0 .3795" font-family="Linux Libertine O" font-size="11.5" font-weight="bolder" letter-spacing="0" style="line-height:125%;-inkscape-font-specification:Sans Bold" transform="rotate(-12 -27.48722217 -2.4976896) skewX(12)" word-spacing="0"/>
</svg>